<?xml version="1.0" standalone="no"?>
<!DOCTYPE svg PUBLIC "-//W3C//DTD SVG 20010904//EN"
 "http://www.w3.org/TR/2001/REC-SVG-20010904/DTD/svg10.dtd">
<svg version="1.0" xmlns="http://www.w3.org/2000/svg"
 width="700.000000pt" height="700.000000pt" viewBox="0 0 700.000000 700.000000"
 preserveAspectRatio="xMidYMid meet">
<metadata>
Created by potrace 1.14, written by Peter Selinger 2001-2017
</metadata>
<g transform="translate(0.000000,700.000000) scale(0.100000,-0.100000)"
fill="#000000" stroke="none">
<path d="M2060 6031 c0 -3 21 -28 46 -56 301 -332 525 -708 535 -898 2 -26 8
-48 13 -48 6 -1 20 -3 31 -4 32 -3 128 -17 146 -20 49 -9 143 -41 214 -73 267
-121 483 -365 564 -637 25 -86 50 -228 42 -237 -3 -4 -18 -9 -33 -12 -28 -5
-41 5 -43 34 -23 243 -144 474 -331 634 -212 181 -512 269 -729 213 -33 -9
-78 -18 -100 -21 -22 -4 -65 -11 -95 -16 -30 -5 -67 -11 -81 -14 -14 -2 -57
-7 -95 -11 -38 -4 -78 -9 -89 -11 -129 -24 -765 -23 -894 1 -9 1 -50 6 -91 11
-41 4 -77 8 -80 9 -3 1 -30 5 -60 9 -30 5 -64 10 -75 12 -11 3 -36 7 -55 10
-19 3 -42 7 -50 9 -8 2 -31 7 -50 10 -137 23 -486 121 -619 174 -29 12 -55 20
-57 19 -1 -2 12 -46 30 -98 276 -792 869 -1387 1726 -1733 148 -59 411 -145
495 -161 111 -22 195 -42 195 -47 0 -13 -325 -330 -444 -434 -7 -5 -39 -35
-71 -65 -33 -30 -100 -91 -149 -135 -112 -101 -96 -86 -201 -180 -50 -44 -92
-82 -95 -85 -3 -3 -43 -39 -90 -80 -47 -41 -87 -77 -90 -80 -8 -8 -232 -204
-264 -231 -16 -13 -36 -31 -45 -39 -18 -18 -136 -121 -250 -219 -13 -12 -22
-23 -20 -25 2 -2 36 -13 74 -24 39 -12 117 -35 175 -52 58 -18 119 -35 135
-40 17 -4 125 -36 240 -70 244 -72 342 -101 555 -164 85 -25 268 -79 405 -120
138 -40 251 -73 253 -71 3 2 5 21 17 125 3 30 10 80 15 110 5 30 12 82 15 115
4 33 8 67 10 75 2 8 7 35 10 60 3 25 8 63 12 85 3 22 7 51 8 65 2 14 12 91 24
172 12 82 21 151 21 154 0 4 18 4 40 0 114 -18 487 -25 685 -13 648 40 1173
255 1540 629 160 163 268 317 364 519 109 229 158 398 196 675 3 17 9 42 14
55 5 13 9 26 9 29 2 16 41 128 59 170 24 55 105 214 112 220 3 3 24 32 46 65
80 120 224 254 352 329 63 37 198 95 239 102 13 2 34 8 46 13 31 12 10 11 298
11 163 0 260 4 260 10 0 8 -56 55 -121 102 -13 9 -107 78 -209 153 -230 170
-323 232 -425 283 -84 42 -231 95 -300 107 -22 4 -49 10 -60 13 -11 2 -85 6
-165 7 -222 5 -394 -38 -615 -151 -205 -104 -332 -200 -531 -399 -131 -132
-150 -147 -152 -126 -8 99 -82 283 -159 396 -72 105 -221 249 -348 337 -313
215 -812 404 -1315 498 -58 11 -116 22 -130 25 -14 2 -43 7 -65 10 -22 3 -49
7 -60 9 -11 2 -65 9 -120 15 -55 7 -110 13 -122 15 -13 2 -23 0 -23 -3z m3763
-912 c83 -90 -21 -222 -132 -164 -27 13 -55 62 -56 95 -1 22 20 62 41 81 41
36 107 31 147 -12z"/>
</g>
</svg>
